<?xml version="1.0" standalone="no"?>
<!DOCTYPE svg PUBLIC "-//W3C//DTD SVG 20010904//EN"
 "http://www.w3.org/TR/2001/REC-SVG-20010904/DTD/svg10.dtd">
<svg version="1.0" xmlns="http://www.w3.org/2000/svg"
 width="580.000000pt" height="580.000000pt" viewBox="0 0 580.000000 580.000000"
 preserveAspectRatio="xMidYMid meet">
<metadata>
Created by potrace 1.11, written by Peter Selinger 2001-2013
</metadata>
<g transform="translate(0.000000,580.000000) scale(0.100000,-0.100000)"
fill="#000000" stroke="none">
<path d="M0 2900 l0 -2900 911 0 911 0 -6 35 c-9 44 8 105 36 136 13 14 38 44
57 67 18 23 52 55 75 71 37 26 43 37 68 117 24 80 98 449 98 488 0 15 -2 15
-25 0 -36 -24 -189 -37 -229 -20 -35 15 -134 122 -153 164 -18 40 -16 264 2
332 8 30 15 77 15 103 0 80 29 198 71 283 21 45 39 88 39 96 0 8 13 41 29 74
16 32 35 79 41 104 7 25 18 57 26 71 l13 27 -47 7 c-79 11 -242 55 -296 79
-158 71 -286 229 -349 431 -14 44 -28 98 -32 120 -4 22 -18 76 -32 120 -49
160 -39 411 23 545 14 30 42 100 61 155 98 279 251 552 405 721 223 244 526
437 777 495 86 20 100 21 170 9 94 -16 100 -16 187 0 62 12 82 12 150 -2 44
-9 115 -30 160 -47 l81 -31 17 -58 c9 -31 19 -63 23 -70 3 -7 -26 2 -63 21
-89 44 -184 76 -242 82 -44 5 -43 4 13 -9 77 -18 125 -36 223 -81 69 -32 82
-43 101 -79 11 -23 35 -60 53 -81 49 -58 148 -150 161 -150 7 0 12 -5 12 -12
0 -6 4 -15 9 -20 5 -5 6 -3 2 5 -11 19 3 14 35 -12 15 -13 25 -27 21 -30 -3
-4 2 -4 12 0 13 5 17 4 12 -4 -5 -8 -2 -10 8 -6 9 3 16 1 16 -6 0 -6 4 -9 9
-6 5 3 14 -1 21 -9 9 -11 9 -48 1 -165 -6 -83 -11 -166 -11 -186 0 -31 2 -34
20 -24 10 6 23 9 27 8 4 -2 10 2 12 7 3 6 14 18 25 28 21 18 21 19 1 13 -18
-5 -17 -4 4 14 13 11 29 20 36 20 20 0 38 27 24 36 -8 4 -9 3 -5 -4 4 -7 2
-12 -3 -12 -6 0 -11 4 -11 8 0 11 34 42 45 42 5 0 0 -7 -11 -15 -27 -20 0 -19
32 1 13 9 26 15 28 13 23 -31 46 -81 40 -90 -4 -7 -3 -9 3 -6 12 7 104 -181
107 -216 0 -14 5 -25 10 -24 9 2 49 -104 41 -111 -3 -3 1 -12 7 -21 7 -9 -3
-2 -22 15 -30 26 -57 43 -80 48 -3 1 -16 8 -30 16 -14 8 -29 15 -35 16 -9 2
-33 10 -95 32 -8 3 -22 6 -30 7 -8 1 -40 7 -70 13 -120 24 -458 37 -525 20
-22 -6 -41 -10 -42 -9 -2 0 -22 -8 -46 -18 -24 -10 -56 -17 -73 -15 -98 12
-202 19 -289 19 -109 0 -282 -12 -296 -21 -5 -3 -44 7 -87 23 -72 26 -86 28
-227 27 -130 -1 -290 -13 -390 -30 -16 -3 -38 -5 -48 -5 -27 0 -208 -78 -247
-106 -19 -15 -43 -36 -52 -47 -15 -18 -18 -19 -18 -3 0 9 5 17 11 17 5 0 8 4
5 9 -3 5 3 33 13 62 10 31 20 48 23 39 3 -8 3 -4 1 8 -2 13 0 21 5 18 6 -3 10
0 9 7 -1 30 4 47 14 47 5 0 7 -4 4 -10 -9 -15 2 -12 19 6 9 8 16 21 16 27 0 7
-5 4 -11 -6 -6 -9 -14 -15 -19 -12 -11 7 35 111 48 108 6 -1 7 7 4 19 -4 16
-2 19 8 13 9 -5 11 -4 6 3 -8 13 5 43 19 45 5 1 10 9 10 17 2 20 61 111 67
104 3 -3 11 8 17 23 6 15 21 45 33 65 33 53 179 217 200 224 10 3 18 10 18 15
0 6 5 7 12 3 6 -4 8 -3 5 3 -6 9 141 133 158 133 3 0 13 7 22 15 8 8 19 12 25
9 6 -4 8 -3 5 3 -8 12 120 86 135 77 6 -4 8 -3 5 4 -8 11 101 60 197 87 103
30 246 14 262 -30 5 -11 11 -9 30 10 13 13 39 26 57 29 17 3 43 7 57 9 15 3 9
5 -15 6 -23 0 -57 -7 -78 -18 -38 -19 -39 -19 -83 1 -154 67 -429 -36 -740
-278 -225 -175 -437 -488 -554 -819 -23 -66 -55 -147 -70 -180 -40 -86 -54
-163 -54 -300 -1 -101 3 -134 26 -210 15 -49 36 -128 47 -175 49 -197 157
-349 295 -414 116 -55 320 -94 501 -96 l30 0 -41 -35 c-56 -47 -100 -118 -119
-193 -9 -34 -27 -81 -40 -104 -14 -24 -25 -50 -25 -58 0 -9 -16 -48 -35 -89
-42 -87 -45 -103 -7 -39 24 40 30 45 47 37 19 -10 19 -9 3 4 -10 8 -18 19 -18
25 0 14 28 23 34 11 2 -5 3 -4 2 3 -2 7 -9 12 -15 11 -13 -4 -15 14 -1 22 5 3
7 12 4 20 -4 9 0 12 14 9 12 -4 19 0 19 10 0 9 -4 16 -9 16 -4 0 -8 5 -8 10 0
6 6 10 14 10 8 0 18 23 26 63 8 34 20 67 28 73 9 6 13 18 9 28 -5 12 0 19 15
25 14 5 18 10 10 15 -7 4 -9 12 -6 18 4 6 17 -6 30 -28 13 -22 24 -32 24 -24
0 13 1 13 10 0 8 -13 10 -12 10 4 0 12 -5 16 -15 12 -18 -7 -20 10 -2 18 6 3
3 4 -7 3 -10 -1 -21 4 -24 12 -3 8 0 11 7 7 7 -5 9 -1 4 10 -4 11 -3 15 5 10
6 -4 12 3 14 16 2 12 15 29 31 38 24 13 29 13 37 0 5 -8 10 -10 10 -5 0 6 -5
16 -10 21 -7 7 -6 11 5 11 8 0 15 -5 15 -10 0 -5 9 -7 20 -4 11 3 20 1 20 -4
0 -6 6 -6 16 -1 22 12 74 2 74 -14 0 -19 10 -18 26 4 7 9 14 12 14 6 0 -7 11
-9 25 -6 17 3 25 0 25 -10 0 -18 34 -51 43 -42 4 4 -3 15 -14 25 -22 19 -23
27 -7 47 16 18 39 14 45 -8 6 -22 7 -22 208 -24 61 -1 115 -4 120 -8 6 -4 17
-3 25 3 8 5 36 9 63 9 26 0 47 4 47 10 0 5 -27 51 -60 101 -33 50 -60 100 -60
110 0 11 11 25 26 31 25 11 29 10 56 -22 17 -19 54 -71 83 -115 51 -75 53 -80
32 -83 -29 -5 -47 -20 -47 -40 0 -9 -19 -33 -42 -55 -23 -22 -43 -47 -44 -56
-1 -9 17 6 40 32 37 41 47 47 69 42 35 -9 67 3 67 24 0 29 26 43 70 39 22 -2
42 1 45 7 3 6 7 5 11 -2 8 -18 24 -16 24 2 0 9 6 12 15 9 13 -5 13 -9 3 -23
-10 -13 -10 -14 2 -4 8 7 20 13 26 13 22 0 75 -52 70 -67 -4 -9 -2 -11 6 -7 7
5 8 3 4 -5 -5 -7 -14 -10 -22 -7 -9 3 -14 -1 -14 -13 0 -23 18 -31 46 -20 16
6 24 1 38 -22 9 -16 14 -34 10 -41 -4 -6 -3 -8 3 -5 7 4 12 -7 15 -27 3 -28 1
-32 -14 -28 -12 3 -18 -1 -18 -11 0 -11 7 -14 23 -12 18 3 26 -5 46 -46 13
-28 20 -53 16 -57 -4 -4 -10 -2 -12 5 -3 8 -15 10 -33 7 -35 -8 -92 32 -111
78 -11 28 -10 32 12 50 22 18 23 19 3 13 -15 -4 -24 0 -28 10 -3 9 -2 13 4 10
6 -3 10 -1 10 5 0 6 4 9 9 5 6 -3 14 3 20 12 5 10 13 16 18 14 4 -3 10 3 11
13 3 16 1 16 -35 -3 -22 -11 -45 -27 -52 -35 -8 -9 -19 -16 -26 -16 -7 0 -12
-8 -10 -18 2 -9 4 -19 4 -21 1 -3 8 4 16 15 9 12 14 14 15 6 0 -16 -25 -43
-33 -36 -3 3 -4 -2 -3 -11 1 -9 7 -20 12 -23 6 -4 11 -23 12 -42 3 -57 13 -90
25 -90 8 0 7 -3 -2 -9 -10 -7 -11 -13 -2 -30 15 -27 19 -26 32 2 l10 22 -5
-22 c-2 -13 0 -23 5 -23 4 0 6 -7 2 -16 -3 -9 -12 -13 -22 -9 -13 5 -14 4 -4
-6 7 -7 13 -22 14 -33 1 -18 2 -17 9 4 6 18 8 20 9 7 1 -10 5 -16 9 -13 5 3 7
19 6 35 -1 17 2 28 7 25 5 -3 9 2 9 10 0 9 4 16 10 16 5 0 7 7 4 15 -6 14 -8
13 -20 -2 -13 -16 -13 -15 -3 10 7 15 16 27 21 27 5 0 7 -4 4 -8 -2 -4 -1 -14
4 -22 5 -8 4 -22 -3 -34 -14 -27 -18 -47 -11 -66 4 -13 6 -13 15 0 7 12 10 11
15 -7 4 -13 11 -23 16 -23 5 0 7 -4 3 -9 -3 -6 3 -14 12 -20 16 -9 16 -12 3
-20 -8 -6 -12 -12 -9 -15 8 -9 49 33 49 49 0 9 6 12 15 9 8 -4 22 0 31 7 13
10 17 10 24 -1 5 -8 12 -11 16 -7 4 4 -11 46 -34 95 -23 48 -42 93 -42 100 0
7 -16 44 -35 82 -19 38 -35 80 -35 92 0 40 -52 127 -106 178 l-53 50 32 0
c177 1 418 48 518 101 137 73 232 212 284 414 13 50 32 110 43 135 34 76 45
160 39 293 -5 134 -28 225 -72 290 -14 20 -37 72 -52 115 -47 140 -134 324
-210 445 -18 27 -17 27 19 64 l36 36 38 -59 c57 -88 157 -295 200 -414 21 -58
50 -125 65 -150 89 -149 109 -438 43 -625 -13 -38 -36 -110 -49 -158 -65 -231
-179 -394 -331 -474 -60 -32 -240 -84 -336 -98 -27 -4 -48 -8 -48 -10 0 -1 7
-16 16 -33 8 -17 18 -48 21 -68 3 -21 21 -66 40 -101 18 -36 33 -72 33 -81 0
-10 12 -39 26 -66 43 -81 64 -156 75 -264 5 -57 16 -131 24 -165 18 -78 19
-217 2 -284 -16 -61 -103 -165 -158 -187 -42 -17 -198 -7 -224 14 -9 7 -18 10
-21 7 -9 -9 43 -278 85 -440 37 -141 40 -150 73 -172 20 -13 63 -56 96 -94 64
-75 79 -113 69 -177 l-6 -34 1060 0 1059 0 0 2900 0 2900 -977 0 c-760 0 -974
-3 -965 -12 17 -17 15 -38 -9 -82 -11 -22 -14 -34 -7 -30 45 28 82 -8 53 -52
-8 -13 -20 -24 -25 -24 -6 0 -10 -4 -10 -10 0 -6 9 -6 23 1 27 12 57 58 50 77
-3 7 -2 19 1 27 6 17 36 9 36 -10 0 -8 8 -11 21 -8 19 5 21 3 17 -23 -3 -16
-9 -37 -13 -46 -15 -36 15 -17 34 20 29 58 45 67 82 52 28 -12 30 -17 27 -51
-4 -45 16 -36 25 10 10 48 48 121 69 132 16 9 24 7 36 -5 14 -13 14 -21 5 -46
-7 -20 -8 -32 -1 -36 6 -4 7 -25 3 -52 -6 -41 -5 -45 9 -33 9 8 16 19 16 26 0
7 12 25 26 40 21 23 25 34 19 61 -3 21 -2 34 5 34 5 0 10 -9 10 -20 0 -11 5
-20 10 -20 6 0 10 11 10 25 0 14 5 25 11 25 7 0 8 -11 4 -31 -6 -24 -4 -30 6
-27 8 3 15 14 17 26 2 12 8 22 13 22 13 0 11 -34 -3 -48 -9 -9 -9 -12 0 -12 6
0 15 7 20 16 7 12 11 13 17 4 4 -7 -3 -23 -18 -38 -27 -30 -52 -92 -36 -92 5
0 9 5 9 12 0 8 3 9 10 2 6 -6 8 -18 4 -27 -7 -19 -49 -23 -59 -7 -4 7 -11 7
-18 2 -7 -5 -36 -9 -64 -9 -64 -1 -82 15 -66 58 6 16 8 29 3 29 -13 0 -27 -24
-35 -58 -6 -28 -11 -33 -29 -28 -28 7 -39 -2 -55 -42 -15 -36 -52 -52 -76 -32
-20 17 -19 26 5 50 16 16 17 20 5 20 -8 0 -15 5 -15 11 0 8 -4 8 -14 -1 -8 -6
-25 -10 -38 -8 -20 3 -23 8 -21 48 l2 45 -20 -37 c-21 -41 -45 -58 -82 -58
-33 0 -50 23 -45 61 5 31 4 31 -50 -25 -92 -95 -123 -65 -79 77 13 45 23 85
20 90 -9 15 -33 6 -58 -20 -22 -23 -25 -34 -20 -65 6 -45 -12 -51 -46 -17 -15
15 -19 28 -15 47 7 28 64 85 77 76 4 -2 10 0 14 6 4 7 -587 10 -1824 10
l-1831 0 0 -2900z m4645 2597 c124 -41 280 -133 350 -206 l29 -31 -59 20 c-32
11 -59 20 -61 20 -2 0 -8 -27 -15 -61 l-12 -60 -29 35 c-34 41 -132 92 -203
105 -38 7 -368 17 -406 12 -4 -1 4 -36 17 -78 13 -42 22 -79 19 -81 -2 -2 -20
2 -41 8 -22 7 -63 10 -100 7 -61 -4 -63 -4 -74 23 -15 37 -76 98 -121 120 -91
47 -223 44 -378 -10 -47 -16 -87 -27 -90 -25 -5 6 29 34 98 82 l53 38 412 5
c459 6 449 4 483 75 18 39 19 39 128 2z m-730 -214 c69 -36 114 -106 101 -158
l-6 -24 42 15 c103 38 222 14 281 -55 29 -34 32 -30 43 47 6 44 4 50 -15 55
-21 5 -33 27 -46 86 l-7 34 163 -6 c203 -7 252 -20 319 -85 52 -51 76 -109 64
-159 -7 -30 -46 -87 -79 -116 -37 -32 -129 -74 -202 -92 -82 -20 -69 0 -112
-169 -11 -43 -23 -82 -28 -86 -4 -4 -44 -11 -87 -15 l-79 -7 6 39 c4 21 7 45
7 54 0 8 14 31 30 49 44 49 78 126 85 190 5 40 4 51 -4 40 -6 -8 -11 -27 -11
-41 0 -42 -57 -144 -106 -189 -113 -104 -275 -129 -376 -58 -16 11 -40 40 -55
66 -54 91 -28 221 63 322 25 28 31 39 18 32 -50 -26 -103 -105 -124 -180 -8
-31 -20 -49 -41 -60 -34 -20 -33 -14 -14 -122 26 -147 28 -141 -69 -184 -47
-21 -88 -38 -93 -38 -4 1 -31 101 -60 224 -82 347 -89 373 -99 371 -5 -1 -17
-5 -26 -8 -12 -5 -32 8 -69 44 -50 50 -51 51 -28 60 13 5 80 32 149 61 176 73
248 91 345 87 56 -3 92 -10 120 -24z m1130 -92 c44 -16 79 -34 77 -41 -1 -6
-29 -71 -61 -143 -32 -73 -68 -153 -79 -178 l-20 -47 -57 13 c-31 8 -58 15
-60 17 -2 2 4 32 14 68 10 36 31 127 46 203 22 107 32 137 44 137 9 0 52 -14
96 -29z m131 -183 c27 -91 25 -232 -5 -318 -93 -266 -364 -462 -728 -525 -102
-18 -306 -20 -419 -4 l-81 12 -75 -79 c-41 -44 -96 -101 -122 -129 l-48 -50 6
40 c3 22 8 97 12 167 l7 126 -54 27 c-192 96 -361 289 -398 455 -16 67 -13
209 4 268 9 29 18 52 22 52 3 0 19 -13 35 -30 15 -16 36 -30 46 -30 15 0 28
-45 87 -297 38 -164 70 -300 71 -302 2 -2 68 27 147 64 l144 66 -8 52 c-5 28
-7 53 -5 55 2 1 17 -9 32 -23 40 -37 70 -51 136 -64 58 -10 136 -3 192 18 16
7 30 10 32 8 2 -2 0 -25 -5 -51 -7 -41 -6 -46 8 -42 9 2 71 12 138 22 67 10
126 20 131 23 5 3 22 58 38 121 l29 114 90 31 c50 16 108 41 129 54 l39 25 -7
-30 c-4 -16 -9 -36 -12 -45 -3 -11 3 -19 18 -23 22 -6 21 -8 -14 -26 -75 -40
-110 -120 -83 -188 22 -53 66 -77 130 -70 103 12 182 128 141 209 -20 39 -20
36 2 41 12 4 42 59 92 172 41 91 77 166 80 166 4 0 15 -28 26 -62z m-257 -324
c12 -15 21 -36 21 -48 0 -32 -37 -85 -66 -96 -71 -27 -124 2 -124 69 0 86 119
139 169 75z m-1935 -1105 c3 -2 -3 -31 -12 -63 l-17 -58 -45 7 c-46 7 -232 9
-305 3 -38 -3 -40 -2 -45 32 -4 19 -12 45 -18 57 -12 21 -10 22 35 26 58 6
401 2 407 -4z m-619 -56 c40 -41 45 -75 16 -112 -13 -17 -23 -22 -39 -16 -12
3 -22 11 -22 16 0 5 -7 9 -15 9 -9 0 -24 13 -33 30 -9 16 -20 30 -24 30 -13 0
-9 55 4 68 25 25 75 14 113 -25z m913 1 c4 -40 -33 -97 -76 -118 -18 -9 -35
-16 -37 -16 -12 0 -45 46 -45 62 0 49 73 110 125 106 26 -3 30 -8 33 -34z
m-379 -155 l50 -10 6 -47 c33 -268 129 -444 319 -586 134 -101 340 -151 529
-128 50 6 113 19 138 27 51 18 141 88 158 123 6 13 16 20 21 17 6 -3 10 2 10
11 0 10 3 15 6 11 4 -3 3 -14 -1 -24 -4 -10 -9 -27 -10 -37 -1 -11 -7 -22 -14
-24 -6 -2 -8 -9 -5 -14 4 -7 2 -8 -4 -4 -7 4 -12 3 -12 -3 0 -5 6 -12 13 -15
6 -3 -4 -3 -24 0 -36 6 -49 -3 -62 -38 -9 -26 7 -22 18 4 12 28 43 35 52 12 4
-11 -1 -22 -12 -30 -14 -11 -15 -14 -4 -15 10 0 10 -2 1 -6 -6 -2 -9 -10 -6
-15 5 -7 2 -8 -6 -3 -9 6 -12 4 -8 -6 3 -8 0 -23 -7 -33 -13 -17 -14 -16 -28
11 -8 15 -12 35 -10 43 4 13 3 13 -6 0 -6 -8 -11 -21 -11 -28 0 -8 -9 -26 -21
-40 -12 -16 -16 -28 -10 -30 6 -2 9 -8 5 -13 -3 -5 0 -9 6 -9 6 0 8 11 6 24
-3 19 -1 23 15 19 11 -3 19 0 19 8 0 7 2 10 5 7 9 -9 -7 -38 -17 -32 -6 4 -9
1 -6 -7 3 -8 -2 -20 -10 -28 -12 -13 -15 -12 -24 3 -9 16 -10 16 -23 -1 -7
-10 -11 -21 -9 -25 3 -5 1 -8 -4 -8 -5 0 -33 -23 -62 -51 -28 -28 -54 -48 -57
-45 -3 3 -17 -1 -32 -8 -14 -7 -51 -17 -81 -20 -79 -11 -262 -7 -276 5 -7 6
-22 8 -33 4 -11 -3 -40 4 -69 18 -28 14 -63 27 -77 31 -32 8 -218 113 -245
139 -11 9 -24 17 -29 17 -6 0 -22 18 -37 39 -14 22 -32 42 -40 45 -8 3 -14 11
-14 18 0 9 3 9 10 -2 7 -11 8 -5 3 20 -3 19 -10 37 -15 38 -4 2 -8 12 -8 22 0
10 -4 21 -9 24 -4 3 -8 -8 -7 -23 1 -16 5 -27 9 -24 5 3 3 -4 -5 -16 -14 -23
-38 -27 -56 -9 -15 15 3 39 24 31 9 -3 14 1 14 12 0 14 -6 16 -40 10 -39 -7
-40 -6 -41 22 0 25 -1 26 -10 8 -8 -19 -4 49 7 102 2 12 0 25 -6 28 -5 3 -10
1 -10 -5 0 -6 -4 -8 -10 -5 -13 8 -19 -81 -8 -115 3 -8 3 -12 1 -7 -8 13 -23
7 -24 -10 -1 -10 -5 0 -9 22 l-6 40 -8 -52 c-5 -29 -12 -51 -16 -48 -10 6 -21
-50 -14 -72 5 -14 4 -15 -4 -4 -8 11 -11 10 -16 -7 -6 -19 -75 -85 -133 -128
-40 -30 -205 -109 -293 -141 -123 -44 -363 -48 -443 -6 -16 8 -31 12 -34 9 -3
-3 -12 2 -20 10 -8 8 -19 11 -25 8 -7 -4 -8 -2 -4 4 4 7 2 13 -3 13 -34 4 -64
21 -52 29 8 4 0 22 -22 51 -18 24 -39 59 -46 76 -7 18 -17 30 -23 27 -5 -3 -6
6 -2 23 4 15 4 25 0 21 -4 -3 -7 -9 -6 -13 1 -3 -6 -17 -14 -31 -9 -13 -12
-24 -7 -24 5 0 11 3 14 8 2 4 2 2 1 -5 -2 -7 2 -15 8 -19 6 -4 8 -3 4 4 -3 6
-2 13 4 17 14 9 13 -18 -2 -33 -9 -9 -9 -12 0 -12 13 0 52 -39 52 -53 0 -10
-54 42 -92 90 -16 21 -24 41 -21 50 4 10 2 14 -4 10 -7 -5 -9 1 -5 15 4 16 2
19 -8 13 -9 -5 -11 -4 -6 4 10 16 -2 64 -14 56 -5 -3 -12 0 -16 6 -5 8 -3 9 6
4 9 -5 10 -2 6 11 -3 11 -1 26 4 34 8 12 10 12 16 -3 3 -9 10 -14 15 -11 5 3
9 2 9 -3 0 -4 28 -27 63 -50 53 -36 76 -45 157 -59 280 -48 562 55 718 262
101 135 156 270 169 421 l6 72 41 10 c58 13 226 13 285 0z m-1490 -603 c15
-18 15 -19 -2 -13 -10 4 -16 3 -12 -2 3 -5 1 -12 -5 -16 -5 -3 -11 4 -12 17
-2 42 -3 47 -11 54 -4 4 -7 14 -7 23 1 9 8 3 17 -14 8 -16 23 -39 32 -49z
m1317 -4 c-12 -11 -15 5 -8 44 l7 39 3 -39 c2 -21 1 -41 -2 -44z m-6 -108 c0
-27 3 -28 31 -14 10 6 19 7 19 2 0 -8 -57 -32 -78 -32 -12 0 -17 62 -6 73 12
12 34 -6 34 -29z m-1290 2 c0 -3 -4 -8 -10 -11 -5 -3 -10 -1 -10 4 0 6 5 11
10 11 6 0 10 -2 10 -4z m1370 -36 c0 -5 -2 -10 -4 -10 -3 0 -8 5 -11 10 -3 6
-1 10 4 10 6 0 11 -4 11 -10z m81 -39 c13 -11 20 -23 16 -27 -4 -4 -19 4 -33
19 -29 31 -18 36 17 8z m-231 1 c0 -15 -137 -128 -146 -120 -2 3 7 13 21 22
14 9 44 37 66 61 40 43 59 55 59 37z m1352 -54 c-7 -7 -12 -8 -12 -2 0 14 12
26 19 19 2 -3 -1 -11 -7 -17z m-1077 2 c3 -5 1 -10 -4 -10 -6 0 -11 5 -11 10
0 6 2 10 4 10 3 0 8 -4 11 -10z m30 -30 c3 -6 -1 -7 -9 -4 -18 7 -21 14 -7 14
6 0 13 -4 16 -10z m962 -106 c-3 -3 -12 -4 -19 -1 -8 3 -5 6 6 6 11 1 17 -2
13 -5z m-1550 -10 c-3 -3 -12 -4 -19 -1 -8 3 -5 6 6 6 11 1 17 -2 13 -5z m800
0 c-3 -3 -12 -4 -19 -1 -8 3 -5 6 6 6 11 1 17 -2 13 -5z m-890 -40 c-3 -3 -12
-4 -19 -1 -8 3 -5 6 6 6 11 1 17 -2 13 -5z m1090 -476 c-3 -8 -6 -5 -6 6 -1
11 2 17 5 13 3 -3 4 -12 1 -19z m30 -40 c-3 -8 -6 -5 -6 6 -1 11 2 17 5 13 3
-3 4 -12 1 -19z m83 -86 c0 -5 -7 -17 -16 -28 -8 -10 -13 -13 -9 -6 3 6 1 12
-6 12 -7 0 -4 7 7 15 23 17 24 17 24 7z m61 -29 c13 -16 12 -17 -3 -4 -17 13
-22 21 -14 21 2 0 10 -8 17 -17z m-60 -24 c-5 -13 -10 -19 -10 -12 -1 15 10
45 15 40 3 -2 0 -15 -5 -28z m37 -24 c-1 -45 -11 -58 -22 -30 -3 8 -1 15 4 15
6 0 10 14 10 30 0 17 2 30 5 30 3 0 4 -20 3 -45z"/>
<path d="M3682 5111 c-11 -7 -11 -23 4 -95 10 -47 23 -86 30 -86 20 0 78 45
101 79 25 37 23 76 -5 99 -18 14 -110 16 -130 3z m106 -58 c2 -13 -5 -27 -20
-37 -25 -18 -35 -12 -38 24 -3 39 -2 42 28 38 19 -2 28 -9 30 -25z"/>
<path d="M4556 5029 c-23 -102 -23 -103 21 -94 56 10 89 31 102 64 17 40 7 64
-34 84 -63 30 -71 25 -89 -54z m85 5 c11 -14 10 -19 -11 -36 l-25 -20 -3 22
c-7 45 14 64 39 34z"/>
<path d="M4112 5010 c-62 -15 -112 -82 -112 -150 0 -22 10 -41 30 -62 27 -27
36 -30 75 -26 57 7 103 41 127 95 41 93 -22 167 -120 143z m60 -67 c26 -24 22
-60 -11 -94 -31 -31 -51 -35 -82 -19 -37 20 -16 106 31 123 27 10 43 7 62 -10z"/>
<path d="M4775 4407 c-3 -9 -7 -24 -10 -32 -2 -8 0 -15 5 -15 6 0 10 8 11 18
0 15 1 15 8 -2 5 -14 10 -16 15 -8 4 7 0 22 -8 34 -13 19 -16 19 -21 5z"/>
<path d="M4711 4358 c-1 -29 -21 -40 -21 -12 0 11 -5 14 -16 10 -9 -3 -18 -6
-20 -6 -2 0 -4 -9 -4 -19 0 -11 -4 -23 -10 -26 -5 -3 -10 1 -10 9 0 24 -38 20
-42 -4 -5 -32 -22 -24 -25 12 -3 26 -1 30 7 18 8 -10 10 -11 8 -2 -5 19 -22
16 -26 -3 -2 -9 -12 -25 -23 -36 -21 -21 -25 -39 -9 -39 6 0 10 9 10 20 0 11
5 20 11 20 6 0 9 -9 6 -19 -4 -17 -1 -18 18 -11 12 5 41 13 63 19 32 9 39 15
35 30 -3 10 0 22 6 25 7 4 11 -1 11 -13 0 -25 -1 -25 38 -5 22 11 32 22 31 37
-1 20 -2 20 -9 -3 l-7 -25 -11 25 -11 25 0 -27z m-91 -47 c0 -6 -4 -13 -10
-16 -5 -3 -10 1 -10 9 0 9 5 16 10 16 6 0 10 -4 10 -9z"/>
<path d="M4106 4288 c-9 -12 -16 -19 -16 -15 0 4 -9 3 -19 -2 -14 -8 -20 -7
-25 4 -7 19 -26 19 -26 1 0 -8 -5 -18 -12 -22 -7 -5 -9 -2 -5 9 3 8 0 18 -7
20 -15 6 -36 -11 -36 -29 0 -14 28 -27 41 -18 17 10 49 13 49 3 0 -5 7 -9 16
-9 8 0 12 5 9 10 -3 6 -3 16 1 22 6 9 10 5 14 -12 5 -21 13 -25 48 -28 38 -2
42 0 42 20 0 19 2 20 10 8 6 -9 10 -10 10 -3 0 22 -19 24 -32 3 -16 -25 -31
-26 -23 -1 3 11 0 21 -9 24 -9 4 -12 0 -9 -13 3 -10 0 -21 -7 -25 -18 -11 -24
3 -9 21 8 10 13 19 12 21 -7 9 -2 23 7 18 6 -3 10 -1 10 4 0 18 -18 12 -34
-11z m-124 -30 c-7 -7 -12 -8 -12 -2 0 6 3 14 7 17 3 4 9 5 12 2 2 -3 -1 -11
-7 -17z m55 0 c-3 -8 -6 -5 -6 6 -1 11 2 17 5 13 3 -3 4 -12 1 -19z"/>
<path d="M4400 4279 c0 -5 5 -7 10 -4 6 4 10 -5 10 -19 0 -14 4 -26 8 -26 12
0 10 44 -2 52 -16 11 -26 10 -26 -3z"/>
<path d="M4457 4283 c-10 -10 -8 -43 2 -43 23 0 41 14 41 31 0 19 -29 27 -43
12z m20 -25 c-3 -8 -6 -5 -6 6 -1 11 2 17 5 13 3 -3 4 -12 1 -19z"/>
<path d="M4280 4255 c-10 -12 -10 -19 -2 -27 9 -9 12 -8 12 4 0 9 5 20 11 24
8 4 9 0 4 -15 -4 -12 -2 -21 4 -21 6 0 11 11 11 25 0 28 -21 33 -40 10z"/>
<path d="M4337 4257 c-4 -10 -6 -31 -6 -45 1 -15 3 -20 5 -12 3 9 15 20 27 25
27 12 36 45 12 45 -9 0 -13 -4 -10 -10 3 -5 3 -16 -1 -22 -6 -9 -10 -5 -14 12
-5 22 -7 23 -13 7z"/>
<path d="M4211 4242 c-8 -15 -8 -22 -1 -22 7 0 9 -8 5 -20 -4 -14 -2 -20 9
-20 19 0 36 30 36 62 -1 22 -1 22 -12 3 -11 -19 -11 -19 -18 0 -7 19 -7 19
-19 -3z"/>
<path d="M2742 3265 c0 -16 2 -22 5 -12 2 9 2 23 0 30 -3 6 -5 -1 -5 -18z"/>
<path d="M2761 3224 c0 -11 3 -14 6 -6 3 7 2 16 -1 19 -3 4 -6 -2 -5 -13z"/>
<path d="M2740 3175 c0 -8 4 -15 10 -15 5 0 7 7 4 15 -4 8 -8 15 -10 15 -2 0
-4 -7 -4 -15z"/>
<path d="M2731 3104 c0 -11 3 -14 6 -6 3 7 2 16 -1 19 -3 4 -6 -2 -5 -13z"/>
<path d="M2781 3094 c0 -11 3 -14 6 -6 3 7 2 16 -1 19 -3 4 -6 -2 -5 -13z"/>
<path d="M2781 2964 c0 -11 3 -14 6 -6 3 7 2 16 -1 19 -3 4 -6 -2 -5 -13z"/>
<path d="M2737 2943 c4 -26 3 -27 -10 -10 -14 17 -16 16 -22 -13 -4 -17 -4
-34 -1 -37 3 -4 6 3 6 15 0 29 20 28 21 0 1 -15 5 -10 11 15 7 26 7 42 0 49
-6 6 -8 0 -5 -19z"/>
<path d="M2812 2880 c0 -8 4 -26 8 -40 6 -20 8 -21 8 -5 0 11 -3 29 -8 40 -5
12 -8 14 -8 5z"/>
<path d="M4075 2708 c-16 -15 -25 -28 -19 -28 15 0 66 48 56 53 -4 2 -20 -9
-37 -25z"/>
<path d="M1420 2717 c0 -18 21 -47 35 -47 20 0 27 17 9 24 -10 4 -13 2 -9 -7
4 -6 -3 -1 -14 13 -11 14 -21 21 -21 17z"/>
<path d="M1461 2651 c-9 -6 -11 -15 -6 -27 11 -25 12 -30 14 -56 1 -17 4 -19
13 -10 8 8 8 15 -2 27 -11 13 -10 15 2 10 9 -4 18 0 21 8 4 10 -3 18 -16 22
-19 6 -20 8 -4 12 9 2 15 9 12 14 -8 11 -16 11 -34 0z"/>
<path d="M2808 2653 c7 -3 16 -2 19 1 4 3 -2 6 -13 5 -11 0 -14 -3 -6 -6z"/>
<path d="M4050 2630 c0 -5 4 -10 9 -10 6 0 13 5 16 10 3 6 -1 10 -9 10 -9 0
-16 -4 -16 -10z"/>
<path d="M4025 2586 c-11 -8 -14 -15 -8 -19 6 -4 16 0 23 8 17 21 8 28 -15 11z"/>
<path d="M1625 2390 c3 -5 8 -10 11 -10 2 0 4 5 4 10 0 6 -5 10 -11 10 -5 0
-7 -4 -4 -10z"/>
<path d="M3748 5761 c2 -22 -4 -63 -13 -91 -9 -28 -15 -54 -12 -57 7 -7 66 74
83 114 25 57 19 73 -24 73 l-38 0 4 -39z"/>
<path d="M4240 5720 c-6 -11 -8 -20 -6 -20 3 0 10 9 16 20 6 11 8 20 6 20 -3
0 -10 -9 -16 -20z"/>
<path d="M4084 5649 c-6 -8 -15 -25 -19 -39 l-7 -25 22 21 c12 12 20 30 18 39
-2 15 -5 16 -14 4z"/>
<path d="M4356 5645 c-17 -17 -22 -45 -8 -45 11 0 37 48 30 55 -3 3 -13 -1
-22 -10z"/>
<path d="M3860 5639 c0 -5 5 -7 10 -4 6 3 10 8 10 11 0 2 -4 4 -10 4 -5 0 -10
-5 -10 -11z"/>
<path d="M4055 5519 c-4 -6 -5 -12 -2 -15 2 -3 7 2 10 11 7 17 1 20 -8 4z"/>
<path d="M4026 3638 c3 -5 10 -6 15 -3 13 9 11 12 -6 12 -8 0 -12 -4 -9 -9z"/>
<path d="M2492 2209 c2 -6 8 -10 13 -10 5 0 11 4 13 10 2 6 -4 11 -13 11 -9 0
-15 -5 -13 -11z"/>
<path d="M2305 2200 c3 -5 8 -10 11 -10 2 0 4 5 4 10 0 6 -5 10 -11 10 -5 0
-7 -4 -4 -10z"/>
<path d="M3190 2201 c0 -10 19 -25 25 -20 1 2 -3 10 -11 17 -8 7 -14 8 -14 3z"/>
<path d="M2985 2191 c-6 -11 9 -23 19 -14 9 9 7 23 -3 23 -6 0 -12 -4 -16 -9z"/>
<path d="M2435 2180 c3 -5 8 -10 11 -10 2 0 4 5 4 10 0 6 -5 10 -11 10 -5 0
-7 -4 -4 -10z"/>
<path d="M2160 2169 c0 -5 5 -7 10 -4 6 3 10 8 10 11 0 2 -4 4 -10 4 -5 0 -10
-5 -10 -11z"/>
<path d="M3322 2171 c-11 -7 -11 -9 2 -14 10 -4 16 -1 16 8 0 17 -1 17 -18 6z"/>
<path d="M2950 2160 c0 -5 5 -10 11 -10 5 0 7 5 4 10 -3 6 -8 10 -11 10 -2 0
-4 -4 -4 -10z"/>
<path d="M2540 2150 c0 -5 5 -10 10 -10 6 0 10 5 10 10 0 6 -4 10 -10 10 -5 0
-10 -4 -10 -10z"/>
<path d="M2723 2113 c-3 -10 -7 -20 -9 -23 -1 -3 6 -6 17 -6 10 0 19 4 19 8 0
4 -5 8 -11 8 -6 0 -9 7 -5 15 3 8 3 15 0 15 -2 0 -7 -8 -11 -17z"/>
<path d="M2600 2101 c0 -6 5 -13 10 -16 6 -3 10 1 10 9 0 9 -4 16 -10 16 -5 0
-10 -4 -10 -9z"/>
<path d="M2870 2082 c10 -20 8 -23 -20 -28 -16 -4 -30 -11 -30 -16 0 -12 59 0
80 16 8 6 16 17 18 25 3 12 1 12 -13 1 -13 -11 -18 -10 -31 6 -14 18 -15 18
-4 -4z"/>
<path d="M3270 2095 c0 -5 5 -17 10 -25 5 -8 10 -10 10 -5 0 6 -5 17 -10 25
-5 8 -10 11 -10 5z"/>
<path d="M2363 2075 c-3 -9 -3 -18 -1 -21 3 -3 8 4 11 16 6 23 -1 27 -10 5z"/>
<path d="M2486 2078 c3 -5 10 -6 15 -3 13 9 11 12 -6 12 -8 0 -12 -4 -9 -9z"/>
<path d="M2574 2072 c0 -12 9 -18 28 -19 15 0 25 3 22 8 -3 5 -12 9 -20 9 -8
0 -14 5 -14 10 0 6 -4 10 -8 10 -4 0 -8 -8 -8 -18z"/>
<path d="M3065 2079 c-4 -6 -5 -12 -2 -15 2 -3 7 2 10 11 7 17 1 20 -8 4z"/>
<path d="M2677 2066 c-4 -11 -13 -16 -22 -12 -8 3 -15 1 -15 -3 0 -5 7 -12 16
-15 22 -8 26 -8 20 3 -4 5 -1 11 5 13 7 2 10 10 7 18 -3 11 -6 10 -11 -4z"/>
<path d="M2825 2070 c3 -5 8 -10 11 -10 2 0 4 5 4 10 0 6 -5 10 -11 10 -5 0
-7 -4 -4 -10z"/>
<path d="M2113 2054 c-20 -21 -16 -42 3 -22 9 9 15 21 13 26 -2 6 -9 4 -16 -4z"/>
<path d="M2713 2056 c3 -8 -1 -17 -9 -20 -8 -3 -14 -15 -14 -28 0 -17 3 -19
12 -10 19 19 37 14 31 -8 -8 -30 25 -26 37 5 5 14 14 24 19 23 5 -2 9 2 9 7 1
6 -6 9 -14 9 -8 -1 -14 7 -14 17 0 26 -16 24 -25 -3 l-8 -23 -4 23 c-2 12 -9
22 -15 22 -5 0 -8 -6 -5 -14z"/>
<path d="M2137 2041 c-4 -17 -3 -21 5 -13 5 5 8 16 6 23 -3 8 -7 3 -11 -10z"/>
<path d="M3285 2040 c3 -5 10 -10 16 -10 5 0 9 5 9 10 0 6 -7 10 -16 10 -8 0
-12 -4 -9 -10z"/>
<path d="M2190 2018 c0 -7 4 -19 9 -27 7 -10 9 -7 8 12 -2 26 -17 39 -17 15z"/>
<path d="M2143 2002 c-8 -14 -8 -19 1 -19 7 0 13 9 13 19 1 10 1 18 0 18 -1 0
-7 -8 -14 -18z"/>
<path d="M2778 1980 c-4 -32 -58 -43 -59 -13 0 16 -1 16 -9 -2 -12 -27 -12
-43 0 -25 6 10 10 11 10 3 0 -20 45 -15 64 6 13 15 15 24 8 37 -9 16 -10 15
-14 -6z"/>
<path d="M3210 1980 c0 -6 7 -10 15 -10 8 0 15 2 15 4 0 2 -7 6 -15 10 -8 3
-15 1 -15 -4z"/>
<path d="M2051 1964 c0 -11 3 -14 6 -6 3 7 2 16 -1 19 -3 4 -6 -2 -5 -13z"/>
<path d="M2071 1964 c0 -11 3 -14 6 -6 3 7 2 16 -1 19 -3 4 -6 -2 -5 -13z"/>
<path d="M2160 1965 c-8 -9 -8 -15 -2 -15 12 0 26 19 19 26 -2 2 -10 -2 -17
-11z"/>
<path d="M2250 1970 c-13 -8 -12 -10 3 -10 9 0 17 5 17 10 0 12 -1 12 -20 0z"/>
<path d="M2091 1954 c0 -11 3 -14 6 -6 3 7 2 16 -1 19 -3 4 -6 -2 -5 -13z"/>
<path d="M3091 1944 c0 -11 3 -14 6 -6 3 7 2 16 -1 19 -3 4 -6 -2 -5 -13z"/>
<path d="M3136 1945 c-3 -8 -1 -15 4 -15 6 0 10 7 10 15 0 8 -2 15 -4 15 -2 0
-6 -7 -10 -15z"/>
<path d="M2310 1940 c-10 -7 -12 -12 -4 -17 6 -5 14 -15 17 -23 3 -8 4 0 4 17
-1 18 -2 33 -2 33 0 0 -7 -5 -15 -10z"/>
<path d="M2356 1941 c-4 -5 -2 -12 3 -15 5 -4 12 -2 15 3 4 5 2 12 -3 15 -5 4
-12 2 -15 -3z"/>
<path d="M2480 1940 c0 -5 5 -10 10 -10 6 0 10 5 10 10 0 6 -4 10 -10 10 -5 0
-10 -4 -10 -10z"/>
<path d="M3010 1939 c0 -5 5 -7 10 -4 6 3 10 8 10 11 0 2 -4 4 -10 4 -5 0 -10
-5 -10 -11z"/>
<path d="M2106 1931 c-18 -7 -18 -8 -3 -14 9 -3 17 -2 17 4 0 6 5 7 10 4 6 -3
10 -1 10 4 0 12 -7 13 -34 2z"/>
<path d="M2161 1916 c-7 -8 -8 -17 -3 -20 6 -3 13 1 16 10 9 23 2 28 -13 10z"/>
<path d="M3201 1914 c0 -11 3 -14 6 -6 3 7 2 16 -1 19 -3 4 -6 -2 -5 -13z"/>
<path d="M2440 1902 c-13 -14 -12 -15 3 -9 9 3 24 4 32 1 11 -5 12 -10 2 -24
-8 -14 -13 -16 -19 -7 -5 8 -8 7 -8 -5 0 -10 5 -18 11 -18 6 0 9 -6 6 -12 -2
-7 -10 -12 -16 -10 -6 1 -11 -5 -11 -14 0 -8 -4 -13 -9 -9 -23 13 -18 -15 8
-45 19 -24 28 -29 28 -17 0 9 -6 17 -13 17 -18 0 -25 28 -8 34 22 8 24 8 24
-9 0 -9 6 -12 15 -9 8 4 15 18 14 33 0 22 -2 23 -8 7 -4 -11 -10 -15 -13 -10
-8 13 3 74 13 74 18 0 8 27 -14 37 -17 8 -26 7 -37 -5z"/>
<path d="M2720 1905 c7 -8 21 -15 31 -15 11 0 19 7 19 15 0 10 -10 15 -31 15
-27 0 -30 -2 -19 -15z"/>
<path d="M2668 1903 c6 -2 18 -2 25 0 6 3 1 5 -13 5 -14 0 -19 -2 -12 -5z"/>
<path d="M3030 1900 c0 -5 7 -7 15 -4 8 4 15 8 15 10 0 2 -7 4 -15 4 -8 0 -15
-4 -15 -10z"/>
<path d="M2115 1890 c-3 -6 1 -7 9 -4 18 7 21 14 7 14 -6 0 -13 -4 -16 -10z"/>
<path d="M2815 1890 l-30 -8 27 -1 c15 0 30 4 33 9 3 6 5 9 3 9 -2 -1 -16 -5
-33 -9z"/>
<path d="M3010 1888 c0 -9 7 -19 16 -22 15 -6 15 -4 3 11 -7 10 -15 20 -16 22
-2 2 -3 -3 -3 -11z"/>
<path d="M2527 1869 c-4 -16 -3 -18 9 -8 7 6 11 15 8 20 -8 13 -11 11 -17 -12z"/>
<path d="M2678 1883 c7 -3 16 -2 19 1 4 3 -2 6 -13 5 -11 0 -14 -3 -6 -6z"/>
<path d="M2056 1865 c-9 -26 -7 -32 5 -12 6 10 9 21 6 23 -2 3 -7 -2 -11 -11z"/>
<path d="M2313 1866 c4 -10 7 -22 7 -27 0 -5 4 -9 9 -9 12 0 2 38 -12 47 -7 4
-8 0 -4 -11z"/>
<path d="M2426 1863 c-6 -14 -5 -15 5 -6 7 7 10 15 7 18 -3 3 -9 -2 -12 -12z"/>
<path d="M3070 1860 c0 -11 5 -20 10 -20 6 0 10 9 10 20 0 11 -4 20 -10 20 -5
0 -10 -9 -10 -20z"/>
<path d="M3174 1868 c3 -15 26 -23 26 -8 0 6 -4 9 -9 6 -5 -4 -12 -1 -14 4 -3
6 -4 5 -3 -2z"/>
<path d="M2108 1862 c7 -5 10 -16 7 -24 -4 -9 -2 -19 3 -22 5 -3 12 4 15 16 6
21 -6 38 -28 38 -5 0 -4 -4 3 -8z"/>
<path d="M2970 1856 c7 -7 13 -7 20 0 6 6 3 10 -10 10 -13 0 -16 -4 -10 -10z"/>
<path d="M2627 1853 c-4 -3 -7 -18 -7 -33 0 -23 -4 -26 -37 -27 -21 -1 -39 -6
-41 -12 -2 -6 -11 -11 -19 -11 -9 0 -13 -3 -10 -7 4 -3 18 0 32 7 19 10 30 11
50 2 14 -6 25 -8 25 -4 1 4 5 26 9 50 9 44 9 46 -2 35z"/>
<path d="M2877 1812 c-23 -57 -21 -66 4 -17 10 21 18 44 16 49 -2 5 -11 -9
-20 -32z"/>
<path d="M3030 1832 c0 -7 5 -23 11 -34 9 -17 13 -18 20 -7 6 10 9 6 9 -15 0
-21 -4 -27 -16 -22 -9 3 -12 2 -9 -5 4 -5 1 -17 -7 -26 -10 -13 -6 -12 14 2
33 24 40 48 22 72 -7 10 -14 14 -14 8 0 -5 -7 1 -15 15 -8 14 -14 19 -15 12z"/>
<path d="M2039 1813 c-8 -9 -9 -14 -2 -10 6 4 13 1 16 -5 3 -7 4 -3 4 10 -1
26 -1 26 -18 5z"/>
<path d="M2340 1814 c0 -3 13 -19 29 -37 20 -20 29 -25 27 -14 -4 27 -56 75
-56 51z"/>
<path d="M3156 1808 c3 -5 10 -6 15 -3 13 9 11 12 -6 12 -8 0 -12 -4 -9 -9z"/>
<path d="M2071 1794 c0 -11 3 -14 6 -6 3 7 2 16 -1 19 -3 4 -6 -2 -5 -13z"/>
<path d="M2886 1777 c-3 -14 -1 -17 12 -12 9 4 31 11 47 15 17 4 23 9 15 10
-57 7 -69 5 -74 -13z"/>
<path d="M3012 1789 c2 -7 10 -15 17 -17 8 -3 12 1 9 9 -2 7 -10 15 -17 17 -8
3 -12 -1 -9 -9z"/>
<path d="M2015 1780 c3 -5 8 -10 11 -10 2 0 4 5 4 10 0 6 -5 10 -11 10 -5 0
-7 -4 -4 -10z"/>
<path d="M2066 1756 c10 -8 21 -12 24 -10 5 6 -21 24 -34 24 -6 0 -1 -6 10
-14z"/>
<path d="M2005 1750 c3 -5 8 -10 11 -10 2 0 4 5 4 10 0 6 -5 10 -11 10 -5 0
-7 -4 -4 -10z"/>
<path d="M2814 1729 c-19 -22 -19 -22 4 -8 12 8 22 17 22 21 0 12 -6 9 -26
-13z"/>
<path d="M2651 1724 c0 -11 3 -14 6 -6 3 7 2 16 -1 19 -3 4 -6 -2 -5 -13z"/>
<path d="M2730 1720 c0 -7 -9 -9 -22 -5 -13 3 -6 -4 16 -16 31 -17 40 -18 47
-7 8 12 13 4 10 -15 -1 -5 3 -6 8 -2 19 11 -5 50 -33 53 -14 2 -26 -2 -26 -8z"/>
<path d="M2236 1698 c-17 -26 -59 -118 -77 -166 -13 -35 -20 -36 -86 -6 -18 8
-49 14 -70 14 -21 0 -58 2 -82 6 l-43 6 5 42 c3 23 9 51 12 61 6 18 5 18 -5 3
-6 -10 -15 -57 -20 -105 -6 -48 -17 -128 -26 -178 -10 -56 -15 -126 -13 -186
l4 -97 45 -50 c25 -27 49 -50 55 -51 5 -1 -13 22 -40 49 l-50 51 -4 97 c-2 53
3 127 10 165 l12 68 46 -6 c25 -3 78 -13 116 -21 l70 -14 24 -63 c26 -68 51
-111 59 -103 3 3 -1 13 -8 21 -19 22 -60 126 -60 150 0 10 15 53 34 95 18 41
43 98 55 125 12 28 31 61 41 75 l19 25 11 -25 11 -25 -6 25 c-2 14 -5 28 -5
33 0 15 -20 6 -34 -15z"/>
<path d="M3235 1700 c-4 -12 -4 -24 -1 -27 3 -4 6 1 6 10 0 33 18 16 51 -47
19 -36 35 -63 37 -62 6 7 -50 115 -68 131 -17 15 -19 15 -25 -5z"/>
<path d="M3212 1621 c-7 -21 -12 -45 -11 -52 0 -8 7 8 15 35 9 26 13 50 11 52
-2 2 -9 -13 -15 -35z"/>
<path d="M2286 1630 c19 -65 13 -347 -11 -545 -28 -228 -95 -599 -126 -693
-13 -38 -18 -74 -15 -90 4 -17 3 -22 -2 -14 -8 11 -10 11 -15 -1 -3 -8 -30
-32 -59 -52 -29 -21 -64 -53 -78 -72 -14 -19 -33 -42 -42 -51 -10 -9 -18 -23
-18 -30 0 -16 16 -2 42 39 19 30 99 59 162 59 106 0 255 -66 189 -83 -10 -3
-5 -5 12 -6 45 -2 196 19 215 29 14 7 16 4 12 -19 -3 -25 -12 -31 -85 -56 -63
-23 -107 -30 -202 -35 l-120 -7 140 -1 c118 -2 149 1 195 18 30 11 60 27 67
36 15 21 27 115 18 144 -4 14 -1 28 9 39 13 14 19 53 26 152 14 192 26 290 39
324 6 17 13 55 16 85 7 64 61 173 88 178 31 6 66 -25 77 -70 6 -24 22 -83 35
-133 13 -49 31 -162 39 -250 9 -88 19 -184 22 -212 3 -29 10 -55 15 -58 5 -4
10 -43 10 -88 1 -45 3 -74 6 -64 4 15 10 17 31 12 15 -4 59 -11 97 -16 73 -8
143 -10 113 -2 -68 17 85 83 193 83 80 0 177 -45 165 -77 -3 -8 2 -13 14 -13
15 0 20 -7 21 -27 2 -24 2 -24 6 -6 8 42 -123 185 -160 175 -5 -1 -6 2 -3 7 4
5 -1 14 -10 19 -20 11 -90 277 -129 490 -29 155 -63 415 -74 575 -5 59 -11
111 -15 114 -3 3 -6 -3 -6 -14 0 -19 -8 -22 -88 -28 -49 -4 -104 -6 -123 -5
-19 2 -42 -1 -53 -5 -11 -5 -21 -3 -26 5 -12 19 -40 22 -33 4 4 -10 -3 -14
-21 -14 -14 0 -26 6 -26 13 0 8 -4 7 -11 -3 -9 -12 -10 -11 -6 8 3 12 1 20 -4
16 -5 -3 -9 -11 -9 -18 0 -9 -11 -13 -32 -12 -54 4 -58 -1 -58 -65 l0 -58 53
-4 c50 -4 50 -4 -8 -3 l-60 1 -6 75 c-3 41 -6 69 -7 63 -3 -18 -77 -17 -94 0
-11 11 -16 12 -25 1 -12 -12 -70 -11 -188 5 l-50 6 -6 100 c-4 55 -12 111 -18
125 l-12 25 7 -25z m42 -1379 c12 -6 22 -16 22 -22 0 -6 -4 -7 -10 -4 -5 3
-10 1 -10 -5 0 -6 -11 -5 -30 5 -41 21 -137 30 -185 16 l-39 -11 24 23 c22 20
30 22 114 16 50 -3 101 -11 114 -18z m1066 10 c18 -19 17 -20 -37 -14 -32 3
-76 0 -104 -7 -66 -17 -103 -21 -103 -11 0 17 59 35 140 41 47 4 85 8 86 8 0
1 9 -7 18 -17z"/>
<path d="M2697 1622 c-15 -9 -25 -21 -23 -27 2 -5 -6 -20 -17 -32 -17 -19 -18
-26 -8 -45 11 -22 11 -22 7 -2 -2 12 0 28 5 35 8 12 11 11 19 -1 8 -12 10 -12
10 5 0 16 2 17 9 5 6 -8 7 -18 5 -22 -3 -4 0 -8 5 -8 6 0 10 -5 9 -12 -4 -17
55 -16 70 2 10 11 12 11 6 1 -4 -9 -3 -12 4 -7 6 4 8 14 5 24 -5 14 -3 15 8 5
18 -18 30 -16 23 2 -4 8 -2 15 2 15 14 0 31 -14 37 -30 4 -12 6 -12 6 2 2 42
-109 90 -162 70 -17 -6 -32 -10 -35 -8 -6 7 35 26 62 28 13 1 22 6 20 10 -8
13 -37 9 -67 -10z m73 -48 c0 -17 -24 -18 -38 -1 -8 9 -4 12 14 13 15 1 24 -4
24 -12z m17 -26 c-3 -8 -6 -5 -6 6 -1 11 2 17 5 13 3 -3 4 -12 1 -19z"/>
<path d="M3622 1610 c0 -14 2 -19 5 -12 2 6 2 18 0 25 -3 6 -5 1 -5 -13z"/>
<path d="M3631 1554 c-1 -44 -20 -55 -110 -65 -153 -17 -148 -18 -171 34 -11
23 -20 36 -20 29 0 -7 11 -34 25 -60 14 -26 25 -55 25 -65 0 -9 5 -25 11 -35
9 -14 3 -35 -30 -106 -23 -49 -41 -94 -41 -99 0 -13 41 68 70 140 21 49 23 51
53 45 18 -4 56 -6 86 -5 43 1 59 6 81 28 l29 28 10 -34 c8 -28 9 -23 5 31 -6
87 -21 177 -23 134z m-54 -96 c-3 -8 -6 -5 -6 6 -1 11 2 17 5 13 3 -3 4 -12 1
-19z m10 -50 c-3 -7 -5 -2 -5 12 0 14 2 19 5 13 2 -7 2 -19 0 -25z"/>
<path d="M2730 1490 c-20 -6 -17 -7 19 -8 28 0 39 3 30 9 -16 10 -15 10 -49
-1z"/>
<path d="M2399 1473 c-13 -16 -12 -17 4 -4 9 7 17 15 17 17 0 8 -8 3 -21 -13z"/>
<path d="M2830 1480 c-9 -6 -10 -10 -3 -10 6 0 15 5 18 10 8 12 4 12 -15 0z"/>
<path d="M2476 1463 c-6 -14 -5 -15 5 -6 7 7 10 15 7 18 -3 3 -9 -2 -12 -12z"/>
<path d="M3161 1464 c0 -11 3 -14 6 -6 3 7 2 16 -1 19 -3 4 -6 -2 -5 -13z"/>
<path d="M2718 1463 c7 -3 16 -2 19 1 4 3 -2 6 -13 5 -11 0 -14 -3 -6 -6z"/>
<path d="M2785 1460 c4 -6 11 -8 16 -5 14 9 11 15 -7 15 -8 0 -12 -5 -9 -10z"/>
<path d="M3101 1444 c0 -11 3 -14 6 -6 3 7 2 16 -1 19 -3 4 -6 -2 -5 -13z"/>
<path d="M2405 1439 c-4 -6 -5 -12 -2 -15 2 -3 7 2 10 11 7 17 1 20 -8 4z"/>
<path d="M2434 1429 c-4 -7 -3 -9 4 -5 5 3 13 0 15 -6 4 -9 6 -10 6 -1 1 17
-16 25 -25 12z"/>
<path d="M2910 1438 c0 -3 6 -11 14 -17 10 -9 17 -7 27 6 12 16 12 17 -2 6
-12 -10 -18 -10 -27 -1 -7 7 -12 9 -12 6z"/>
<path d="M2591 1414 c0 -11 3 -14 6 -6 3 7 2 16 -1 19 -3 4 -6 -2 -5 -13z"/>
<path d="M2746 1413 c-6 -14 -5 -15 5 -6 7 7 10 15 7 18 -3 3 -9 -2 -12 -12z"/>
<path d="M3668 1245 c3 -60 6 -112 8 -114 7 -8 2 163 -6 194 -3 17 -5 -19 -2
-80z"/>
<path d="M2171 1177 c-1 -10 -8 -20 -16 -23 -8 -4 -15 -17 -15 -31 0 -14 -13
-40 -29 -58 -16 -18 -31 -39 -33 -46 -3 -9 -29 -16 -69 -20 l-64 -6 55 -1 c30
-1 60 2 66 6 27 17 84 96 84 115 0 11 7 28 16 38 9 10 14 24 11 31 -4 8 -6 7
-6 -5z"/>
<path d="M3330 1163 c0 -6 7 -16 15 -23 8 -7 15 -21 15 -32 0 -11 19 -42 42
-69 l41 -49 67 0 67 0 47 50 c25 27 46 57 45 67 0 16 -1 16 -7 2 -4 -9 -25
-37 -47 -61 -40 -44 -42 -45 -106 -47 l-65 -1 -37 44 c-20 25 -37 56 -37 69 0
13 -9 32 -20 42 -11 10 -20 13 -20 8z"/>
<path d="M2743 693 c-26 -128 -33 -184 -42 -313 -5 -74 -14 -148 -20 -163 -6
-16 -11 -45 -11 -65 0 -20 -6 -63 -14 -94 l-13 -58 109 0 c99 0 109 2 104 18
-12 43 -19 91 -21 142 -2 30 -8 78 -13 105 -6 28 -18 131 -27 230 -10 99 -22
197 -29 218 l-12 39 -11 -59z"/>
<path d="M2475 82 c-33 -9 -54 -17 -47 -20 17 -5 101 18 108 29 3 5 4 8 2 8
-2 -1 -30 -9 -63 -17z"/>
<path d="M2990 80 c21 -12 99 -24 80 -12 -8 5 -33 12 -55 15 -25 4 -34 3 -25
-3z"/>
<path d="M2952 63 c2 -12 24 -26 63 -40 51 -19 80 -22 195 -21 l135 1 -116 7
c-111 7 -189 25 -252 57 -27 13 -28 13 -25 -4z"/>
<path d="M1921 40 c-2 -32 21 -40 114 -38 74 2 79 2 25 5 -97 4 -128 12 -133
31 -4 13 -5 14 -6 2z"/>
<path d="M3562 21 c-7 -4 -46 -9 -85 -10 -101 -3 -97 -11 5 -11 67 0 87 3 92
15 6 17 6 18 -12 6z"/>
<path d="M3368 3 c7 -3 16 -2 19 1 4 3 -2 6 -13 5 -11 0 -14 -3 -6 -6z"/>
</g>
</svg>
